<svg width="16" height="16" viewBox="0 0 16 16" fill="none" xmlns="http://www.w3.org/2000/svg">
<path fill-rule="evenodd" clip-rule="evenodd" d="M3.64657 3.64646C3.84183 3.4512 4.15841 3.4512 4.35368 3.64646L12.3534 11.6462C12.5487 11.8415 12.5487 12.1581 12.3534 12.3533C12.1582 12.5486 11.8416 12.5486 11.6463 12.3533L3.64657 4.35357C3.45131 4.15831 3.45131 3.84172 3.64657 3.64646Z" fill="#F7F9FD"/>
<path fill-rule="evenodd" clip-rule="evenodd" d="M12.3534 3.64671C12.5487 3.84197 12.5487 4.15855 12.3534 4.35381L4.35367 12.3536C4.1584 12.5488 3.84182 12.5488 3.64656 12.3536C3.4513 12.1583 3.4513 11.8417 3.64656 11.6465L11.6463 3.64671C11.8416 3.45144 12.1582 3.45144 12.3534 3.64671Z" fill="#F7F9FD"/>
</svg>
