<svg width="24" height="24" viewBox="0 0 24 24" fill="none" xmlns="http://www.w3.org/2000/svg">
<path fill-rule="evenodd" clip-rule="evenodd" d="M16.4161 8.37598C16.0715 8.14622 15.6058 8.23935 15.376 8.58399L15.3195 8.66885C15.3003 8.69763 15.2833 8.72726 15.2686 8.75752C15.2464 8.78275 15.2255 8.80978 15.2063 8.83856L15.0932 9.00827C15.074 9.03705 15.0571 9.06668 15.0423 9.09694C15.0201 9.12217 14.9992 9.1492 14.98 9.17798L14.8669 9.3477C14.8477 9.37648 14.8308 9.4061 14.8161 9.43637C14.7938 9.4616 14.773 9.48863 14.7538 9.51741L14.6406 9.68712C14.6214 9.7159 14.6045 9.74553 14.5898 9.77579C14.5675 9.80102 14.5467 9.82805 14.5275 9.85683L14.4143 10.0265C14.3952 10.0553 14.3782 10.0849 14.3635 10.1152C14.3412 10.1404 14.3204 10.1675 14.3012 10.1963L14.1881 10.366C14.1689 10.3947 14.1519 10.4244 14.1372 10.4546C14.1149 10.4799 14.0941 10.5069 14.0749 10.5357L13.9618 10.7054C13.9426 10.7342 13.9257 10.7638 13.9109 10.7941C13.8887 10.8193 13.8678 10.8463 13.8486 10.8751L13.7355 11.0448C13.7163 11.0736 13.6994 11.1032 13.6846 11.1335C13.6624 11.1587 13.6415 11.1857 13.6224 11.2145L13.5092 11.3842C13.49 11.413 13.4731 11.4426 13.4584 11.4729C13.4361 11.4981 13.4153 11.5252 13.3961 11.5539L13.2829 11.7237C13.2637 11.7524 13.2468 11.7821 13.2321 11.8123C13.2098 11.8376 13.189 11.8646 13.1698 11.8934L13.0567 12.0631C13.0375 12.0919 13.0205 12.1215 13.0058 12.1518C12.9835 12.177 12.9627 12.204 12.9435 12.2328L12.8304 12.4025C12.8112 12.4313 12.7942 12.4609 12.7795 12.4912C12.7572 12.5164 12.7364 12.5434 12.7172 12.5722L12.6041 12.7419C12.5849 12.7707 12.568 12.8003 12.5532 12.8306C12.531 12.8558 12.5101 12.8829 12.4909 12.9116L12.3778 13.0814C12.3586 13.1101 12.3417 13.1398 12.327 13.17C12.3047 13.1953 12.2839 13.2223 12.2647 13.2511L12.2081 13.3359C12.2028 13.3439 12.1974 13.3511 12.1921 13.3577C12.1868 13.3642 12.1817 13.3707 12.1766 13.3773C12.1703 13.3822 12.164 13.3872 12.1578 13.3923C12.1457 13.4023 12.1328 13.4109 12.1193 13.4181C12.1122 13.4219 12.1053 13.4258 12.0984 13.4297C12.0906 13.4318 12.0828 13.434 12.075 13.4363C12.0592 13.4411 12.0427 13.4444 12.0257 13.446C12.0171 13.4468 12.0086 13.4478 12.0001 13.4489C11.9916 13.4478 11.983 13.4468 11.9744 13.446C11.9574 13.4444 11.9409 13.4411 11.9251 13.4363C11.9173 13.434 11.9096 13.4318 11.9018 13.4297C11.8949 13.4258 11.8879 13.4219 11.8809 13.4181C11.8673 13.4109 11.8545 13.4023 11.8423 13.3923C11.8361 13.3872 11.8298 13.3822 11.8235 13.3773C11.8185 13.3707 11.8134 13.3642 11.8081 13.3577C11.8027 13.3511 11.7974 13.3439 11.7921 13.3359L11.7355 13.2511C11.7163 13.2223 11.6955 13.1953 11.6732 13.17C11.6585 13.1398 11.6415 13.1101 11.6224 13.0814L11.5092 12.9116C11.49 12.8829 11.4692 12.8558 11.4469 12.8306C11.4322 12.8003 11.4153 12.7707 11.3961 12.7419L11.2829 12.5722C11.2637 12.5434 11.2429 12.5164 11.2206 12.4912C11.2059 12.4609 11.189 12.4313 11.1698 12.4025L11.0567 12.2328C11.0375 12.204 11.0166 12.177 10.9944 12.1518C10.9796 12.1215 10.9627 12.0919 10.9435 12.0631L10.8304 11.8934C10.8112 11.8646 10.7903 11.8376 10.7681 11.8123C10.7534 11.7821 10.7364 11.7524 10.7172 11.7237L10.6041 11.5539C10.5849 11.5252 10.5641 11.4981 10.5418 11.4729C10.5271 11.4426 10.5101 11.413 10.4909 11.3842L10.3778 11.2145C10.3586 11.1857 10.3378 11.1587 10.3155 11.1335C10.3008 11.1032 10.2839 11.0736 10.2647 11.0448L10.1515 10.8751C10.1323 10.8463 10.1115 10.8193 10.0892 10.7941C10.0745 10.7638 10.0576 10.7342 10.0384 10.7054L9.92524 10.5357C9.90605 10.5069 9.88522 10.4799 9.86295 10.4546C9.84822 10.4244 9.83129 10.3947 9.8121 10.366L9.69896 10.1963C9.67977 10.1675 9.65894 10.1404 9.63667 10.1152C9.62194 10.0849 9.605 10.0553 9.58582 10.0265L9.47268 9.85683C9.45349 9.82805 9.43265 9.80102 9.41038 9.77579C9.39566 9.74553 9.37872 9.7159 9.35953 9.68712L9.24639 9.51741C9.22721 9.48863 9.20637 9.4616 9.1841 9.43637C9.16938 9.4061 9.15244 9.37648 9.13325 9.3477L9.02011 9.17798C9.00092 9.1492 8.98009 9.12217 8.95782 9.09694C8.94309 9.06668 8.92616 9.03705 8.90697 9.00827L8.79383 8.83856C8.77464 8.80978 8.75381 8.78275 8.73154 8.75752C8.71681 8.72726 8.69988 8.69763 8.68069 8.66885L8.62412 8.58399C8.39435 8.23935 7.9287 8.14622 7.58405 8.37598C7.23941 8.60575 7.14628 9.0714 7.37604 9.41604L7.43261 9.5009C7.4518 9.52968 7.47263 9.55671 7.4949 9.58194C7.50963 9.6122 7.52657 9.64183 7.54575 9.67061L7.65889 9.84032C7.67808 9.8691 7.69892 9.89613 7.72119 9.92137C7.73591 9.95163 7.75285 9.98125 7.77204 10.01L7.88518 10.1797C7.90436 10.2085 7.9252 10.2356 7.94747 10.2608C7.96219 10.291 7.97913 10.3207 7.99832 10.3495L8.11146 10.5192C8.13065 10.548 8.15148 10.575 8.17375 10.6002C8.18848 10.6305 8.20541 10.6601 8.2246 10.6889L8.33774 10.8586C8.35693 10.8874 8.37776 10.9144 8.40003 10.9396C8.41476 10.9699 8.43169 10.9995 8.45088 11.0283L8.56402 11.198C8.58321 11.2268 8.60404 11.2538 8.62631 11.2791C8.64104 11.3093 8.65798 11.3389 8.67716 11.3677L8.79031 11.5374C8.80949 11.5662 8.83033 11.5932 8.8526 11.6185C8.86732 11.6487 8.88426 11.6784 8.90345 11.7072L9.01659 11.8769C9.03578 11.9056 9.05661 11.9327 9.07888 11.9579C9.0936 11.9882 9.11054 12.0178 9.12973 12.0466L9.24287 12.2163C9.26206 12.2451 9.28289 12.2721 9.30516 12.2973C9.31989 12.3276 9.33682 12.3572 9.35601 12.386L9.46915 12.5557C9.48834 12.5845 9.50917 12.6115 9.53144 12.6368C9.54617 12.667 9.56311 12.6966 9.58229 12.7254L9.69543 12.8951C9.71462 12.9239 9.73546 12.9509 9.75773 12.9762C9.77245 13.0064 9.78939 13.0361 9.80858 13.0648L9.92172 13.2346C9.9409 13.2633 9.96174 13.2904 9.98401 13.3156C9.99873 13.3459 10.0157 13.3755 10.0349 13.4043L10.148 13.574C10.1672 13.6028 10.188 13.6298 10.2103 13.655C10.225 13.6853 10.242 13.7149 10.2611 13.7437L10.3743 13.9134C10.3935 13.9422 10.4143 13.9692 10.4366 13.9944C10.4513 14.0247 10.4682 14.0543 10.4874 14.0831L10.544 14.168C10.5756 14.2154 10.6093 14.261 10.6448 14.3047C10.6818 14.3501 10.7231 14.3901 10.7675 14.4246C10.8017 14.4695 10.8416 14.5112 10.887 14.5488C10.9774 14.6235 11.0739 14.6877 11.1746 14.7415C11.2267 14.7692 11.2805 14.7903 11.3352 14.8048C11.3841 14.8329 11.437 14.8559 11.4934 14.8729C11.6036 14.906 11.7162 14.928 11.8294 14.939C11.8875 14.9446 11.9446 14.9435 12.0001 14.9362C12.0556 14.9435 12.1127 14.9446 12.1708 14.939C12.284 14.928 12.3966 14.906 12.5068 14.8729C12.5632 14.8559 12.6161 14.8329 12.665 14.8048C12.7197 14.7903 12.7735 14.7692 12.8256 14.7415C12.9263 14.6877 13.0227 14.6235 13.1132 14.5488C13.1586 14.5112 13.1984 14.4695 13.2327 14.4246C13.2771 14.3901 13.3183 14.3501 13.3554 14.3047C13.3909 14.261 13.4245 14.2154 13.4562 14.168L13.5127 14.0831C13.5319 14.0543 13.5489 14.0247 13.5636 13.9944C13.5859 13.9692 13.6067 13.9422 13.6259 13.9134L13.739 13.7437C13.7582 13.7149 13.7751 13.6853 13.7899 13.655C13.8121 13.6298 13.833 13.6028 13.8522 13.574L13.9653 13.4043C13.9845 13.3755 14.0014 13.3459 14.0162 13.3156C14.0384 13.2904 14.0593 13.2633 14.0784 13.2346L14.1916 13.0648C14.2108 13.0361 14.2277 13.0064 14.2424 12.9762C14.2647 12.9509 14.2855 12.9239 14.3047 12.8951L14.4179 12.7254C14.4371 12.6966 14.454 12.667 14.4687 12.6368C14.491 12.6115 14.5118 12.5845 14.531 12.5557L14.6441 12.386C14.6633 12.3572 14.6803 12.3276 14.695 12.2973C14.7173 12.2721 14.7381 12.2451 14.7573 12.2163L14.8704 12.0466C14.8896 12.0178 14.9066 11.9882 14.9213 11.9579C14.9436 11.9327 14.9644 11.9056 14.9836 11.8769L15.0967 11.7072C15.1159 11.6784 15.1328 11.6487 15.1476 11.6185C15.1698 11.5932 15.1907 11.5662 15.2099 11.5374L15.323 11.3677C15.3422 11.3389 15.3591 11.3093 15.3738 11.2791C15.3961 11.2538 15.4169 11.2268 15.4361 11.198L15.5493 11.0283C15.5685 10.9995 15.5854 10.9699 15.6001 10.9396C15.6224 10.9144 15.6432 10.8874 15.6624 10.8586L15.7756 10.6889C15.7947 10.6601 15.8117 10.6305 15.8264 10.6002C15.8487 10.575 15.8695 10.548 15.8887 10.5192L16.0018 10.3495C16.021 10.3207 16.038 10.2911 16.0527 10.2608C16.075 10.2356 16.0958 10.2085 16.115 10.1797L16.2281 10.01C16.2473 9.98125 16.2642 9.95163 16.279 9.92137C16.3012 9.89613 16.3221 9.86911 16.3413 9.84032L16.4544 9.67061C16.4736 9.64183 16.4905 9.6122 16.5053 9.58194C16.5275 9.55671 16.5484 9.52968 16.5675 9.5009L16.6241 9.41604C16.8539 9.0714 16.7608 8.60575 16.4161 8.37598Z" fill="#292D32"/>
</svg>
