<svg width="24" height="24" viewBox="0 0 24 24" fill="none" xmlns="http://www.w3.org/2000/svg">
<path fill-rule="evenodd" clip-rule="evenodd" d="M5.46967 5.46967C5.76256 5.17678 6.23744 5.17678 6.53033 5.46967L18.53 17.4693C18.8229 17.7622 18.8229 18.2371 18.53 18.53C18.2371 18.8229 17.7622 18.8229 17.4693 18.53L5.46967 6.53033C5.17678 6.23744 5.17678 5.76256 5.46967 5.46967Z" fill="#F7F9FD"/>
<path fill-rule="evenodd" clip-rule="evenodd" d="M18.5301 5.47002C18.8229 5.76292 18.8229 6.23779 18.5301 6.53068L6.5304 18.5303C6.23751 18.8232 5.76264 18.8232 5.46974 18.5303C5.17685 18.2374 5.17685 17.7626 5.46974 17.4697L17.4694 5.47002C17.7623 5.17713 18.2372 5.17713 18.5301 5.47002Z" fill="#F7F9FD"/>
</svg>
