<svg width="28" height="28" viewBox="0 0 28 28" fill="none" xmlns="http://www.w3.org/2000/svg">
<path d="M15.1666 23.9167C15.1666 24.8832 14.3831 25.6667 13.4166 25.6667C12.4501 25.6667 11.6666 24.8832 11.6666 23.9167C11.6666 22.9502 12.4501 22.1667 13.4166 22.1667C14.3831 22.1667 15.1666 22.9502 15.1666 23.9167Z" fill="#F7F9FD"/>
<path d="M22.1666 23.9167C22.1666 24.8832 21.3831 25.6667 20.4166 25.6667C19.4501 25.6667 18.6666 24.8832 18.6666 23.9167C18.6666 22.9502 19.4501 22.1667 20.4166 22.1667C21.3831 22.1667 22.1666 22.9502 22.1666 23.9167Z" fill="#F7F9FD"/>
<path fill-rule="evenodd" clip-rule="evenodd" d="M2.62492 10.5C2.62492 10.0168 3.01667 9.625 3.49992 9.625L4.66659 9.625C5.14983 9.625 5.54158 10.0168 5.54158 10.5C5.54158 10.9832 5.14983 11.375 4.66659 11.375H3.49992C3.01667 11.375 2.62492 10.9832 2.62492 10.5Z" fill="#F7F9FD"/>
<path fill-rule="evenodd" clip-rule="evenodd" d="M3.79159 17.5C3.79159 17.0168 4.18334 16.625 4.66659 16.625H5.83325C6.3165 16.625 6.70825 17.0168 6.70825 17.5C6.70825 17.9832 6.3165 18.375 5.83325 18.375H4.66659C4.18334 18.375 3.79159 17.9832 3.79159 17.5Z" fill="#F7F9FD"/>
<path fill-rule="evenodd" clip-rule="evenodd" d="M1.45825 14C1.45825 13.5168 1.85 13.125 2.33325 13.125H5.83325C6.3165 13.125 6.70825 13.5168 6.70825 14C6.70825 14.4832 6.3165 14.875 5.83325 14.875H2.33325C1.85 14.875 1.45825 14.4832 1.45825 14Z" fill="#F7F9FD"/>
<path fill-rule="evenodd" clip-rule="evenodd" d="M1.45825 3.5C1.45825 3.01675 1.85 2.625 2.33325 2.625H5.44026C6.62456 2.625 7.6622 3.41802 7.97316 4.56078L8.55753 6.70833H23.4828C25.1632 6.70833 26.4109 8.2653 26.0447 9.90533L24.0911 18.6553C23.8232 19.8551 22.7585 20.7083 21.5292 20.7083H12.0262C10.7969 20.7083 9.73217 19.8551 9.46429 18.6553L7.03922 7.79365L6.28456 5.02026C6.18091 4.63934 5.83502 4.375 5.44026 4.375H2.33325C1.85 4.375 1.45825 3.98325 1.45825 3.5ZM8.98071 8.45833L11.1722 18.274C11.2615 18.6739 11.6164 18.9583 12.0262 18.9583H21.5292C21.939 18.9583 22.2939 18.6739 22.3832 18.274L24.3368 9.524C24.4588 8.97732 24.0429 8.45833 23.4828 8.45833H8.98071Z" fill="#F7F9FD"/>
</svg>
