<svg width="82" height="29" viewBox="0 0 82 29" fill="none" xmlns="http://www.w3.org/2000/svg">
<path d="M41.5286 18.6211C41.5286 18.6683 40.7008 23.4294 37.9414 23.4294C37.8954 23.4294 37.8954 23.4294 37.8494 23.4294C36.4697 23.3823 35.2739 21.7795 34.5841 19.0925C38.1253 18.6683 40.4248 17.1126 41.7585 15.8399C43.9201 13.8128 45.2538 10.9844 45.3457 8.10891C45.4377 5.89333 44.7939 3.91345 43.5521 2.45212C42.3104 0.990777 40.4708 0.142257 38.4013 0.0479776C35.5959 -0.0463023 33.2044 1.55646 31.5947 4.57341C30.399 6.88327 29.6632 9.99451 29.5252 13.2943C29.3412 17.7726 30.1691 21.5438 31.8707 24.2308C33.3424 26.5406 35.4579 27.9077 37.6654 28.002C37.7574 28.002 37.8494 28.002 37.9414 28.002C43.1382 28.002 45.4377 22.3923 45.9436 19.3754L45.9896 19.1397L41.5746 18.3854L41.5286 18.6211ZM34.0322 13.6714C34.0322 11.0787 34.4461 8.58031 35.3199 6.88327C37.1595 3.30063 40.7467 4.66769 40.6548 7.77893C40.6088 9.38169 39.9189 11.1259 38.6772 12.3986C37.4815 13.6243 35.9178 14.3785 34.0322 14.6614C34.0322 14.3314 34.0322 14.0014 34.0322 13.6714Z" fill="black"/>
<path d="M41.5286 18.6211C41.5286 18.6683 40.7008 23.4294 37.9414 23.4294C37.8954 23.4294 37.8954 23.4294 37.8494 23.4294C36.4697 23.3823 35.2739 21.7795 34.5841 19.0925C38.1253 18.6683 40.4248 17.1126 41.7585 15.8399C43.9201 13.8128 45.2538 10.9844 45.3457 8.10891C45.4377 5.89333 44.7939 3.91345 43.5521 2.45212C42.3104 0.990777 40.4708 0.142257 38.4013 0.0479776C35.5959 -0.0463023 33.2044 1.55646 31.5947 4.57341C30.399 6.88327 29.6632 9.99451 29.5252 13.2943C29.3412 17.7726 30.1691 21.5438 31.8707 24.2308C33.3424 26.5406 35.4579 27.9077 37.6654 28.002C37.7574 28.002 37.8494 28.002 37.9414 28.002C43.1382 28.002 45.4377 22.3923 45.9436 19.3754L45.9896 19.1397L41.5746 18.3854L41.5286 18.6211ZM34.0322 13.6714C34.0322 11.0787 34.4461 8.58031 35.3199 6.88327C37.1595 3.30063 40.7467 4.66769 40.6548 7.77893C40.6088 9.38169 39.9189 11.1259 38.6772 12.3986C37.4815 13.6243 35.9178 14.3785 34.0322 14.6614C34.0322 14.3314 34.0322 14.0014 34.0322 13.6714Z" fill="#416EC2"/>
<path d="M21.2474 3.62978H21.2014C20.3276 2.78126 19.4538 2.07416 18.58 1.55562C17.7061 1.03708 16.7863 0.612819 15.8206 0.37712C14.8088 0.14142 13.797 0 12.6472 0C10.3018 0 8.14023 0.61282 6.20865 1.83846C4.27707 3.0641 2.7594 4.714 1.65564 6.83529C0.55188 8.90945 0 11.2664 0 13.8591C0 16.499 0.55188 18.9031 1.65564 21.0244C2.7594 23.1457 4.27707 24.8428 6.25464 26.0684C8.23221 27.294 10.3937 27.954 12.8312 27.954C13.889 27.954 14.8548 27.8126 15.8206 27.5769C16.7404 27.294 17.6602 26.9169 18.58 26.3512C19.4538 25.7856 20.3276 25.0785 21.2014 24.2299H21.2474V27.1998H25.8464V0.659959H21.2474V3.62978ZM20.3276 18.7617C19.6377 20.1759 18.6719 21.3073 17.4302 22.1086C16.1885 22.91 14.7168 23.3343 13.1071 23.3343C11.4515 23.3343 10.0258 22.91 8.78409 22.1086C7.58835 21.3073 6.66855 20.1759 6.02469 18.7617C5.38083 17.3475 5.0589 15.6976 5.0589 13.8591C5.0589 12.1621 5.38083 10.6065 6.07068 9.19229C6.71454 7.77809 7.68033 6.69387 8.92206 5.84536C10.1638 5.04398 11.5895 4.61972 13.1531 4.61972C14.7628 4.61972 16.1885 5.04398 17.4302 5.84536C18.6719 6.64673 19.6377 7.77809 20.3276 9.19229C21.0174 10.6065 21.3393 12.2092 21.3393 13.9534C21.3393 15.7447 21.0174 17.3004 20.3276 18.7617Z" fill="black"/>
<path d="M21.2474 3.62978H21.2014C20.3276 2.78126 19.4538 2.07416 18.58 1.55562C17.7061 1.03708 16.7863 0.612819 15.8206 0.37712C14.8088 0.14142 13.797 0 12.6472 0C10.3018 0 8.14023 0.61282 6.20865 1.83846C4.27707 3.0641 2.7594 4.714 1.65564 6.83529C0.55188 8.90945 0 11.2664 0 13.8591C0 16.499 0.55188 18.9031 1.65564 21.0244C2.7594 23.1457 4.27707 24.8428 6.25464 26.0684C8.23221 27.294 10.3937 27.954 12.8312 27.954C13.889 27.954 14.8548 27.8126 15.8206 27.5769C16.7404 27.294 17.6602 26.9169 18.58 26.3512C19.4538 25.7856 20.3276 25.0785 21.2014 24.2299H21.2474V27.1998H25.8464V0.659959H21.2474V3.62978ZM20.3276 18.7617C19.6377 20.1759 18.6719 21.3073 17.4302 22.1086C16.1885 22.91 14.7168 23.3343 13.1071 23.3343C11.4515 23.3343 10.0258 22.91 8.78409 22.1086C7.58835 21.3073 6.66855 20.1759 6.02469 18.7617C5.38083 17.3475 5.0589 15.6976 5.0589 13.8591C5.0589 12.1621 5.38083 10.6065 6.07068 9.19229C6.71454 7.77809 7.68033 6.69387 8.92206 5.84536C10.1638 5.04398 11.5895 4.61972 13.1531 4.61972C14.7628 4.61972 16.1885 5.04398 17.4302 5.84536C18.6719 6.64673 19.6377 7.77809 20.3276 9.19229C21.0174 10.6065 21.3393 12.2092 21.3393 13.9534C21.3393 15.7447 21.0174 17.3004 20.3276 18.7617Z" fill="#416EC2"/>
<path d="M65.0303 0.660648L61.5351 17.4896L58.0399 0.660648H51.1414L49.3018 27.389H53.7168L55.1425 6.64742L59.4196 27.389H63.6506L67.9737 6.64742L69.3994 27.389H73.7684L71.9288 0.660648H65.0303Z" fill="black"/>
<path d="M65.0303 0.660648L61.5351 17.4896L58.0399 0.660648H51.1414L49.3018 27.389H53.7168L55.1425 6.64742L59.4196 27.389H63.6506L67.9737 6.64742L69.3994 27.389H73.7684L71.9288 0.660648H65.0303Z" fill="#416EC2"/>
<path d="M82.0001 0.660648H77.5391V27.389H82.0001V0.660648Z" fill="black"/>
<path d="M82.0001 0.660648H77.5391V27.389H82.0001V0.660648Z" fill="#416EC2"/>
</svg>
