<svg width="30" height="26" viewBox="0 0 30 26" fill="none" xmlns="http://www.w3.org/2000/svg">
<path d="M0 4C0 1.79086 1.79086 0 4 0H30V22C30 24.2091 28.2091 26 26 26H0V4Z" fill="#97660C"/>
<path fill-rule="evenodd" clip-rule="evenodd" d="M13.2867 7.3394C13.5112 6.64841 14.4887 6.64842 14.7132 7.3394L15.2024 8.84493H16.7854C17.512 8.84493 17.814 9.77465 17.2263 10.2017L15.9456 11.1322L16.4348 12.6377C16.6593 13.3287 15.8684 13.9033 15.2806 13.4762L13.9999 12.5458L12.7193 13.4762C12.1315 13.9033 11.3406 13.3287 11.5651 12.6377L12.0543 11.1322L10.7736 10.2017C10.1858 9.77464 10.4879 8.84493 11.2145 8.84493H12.7975L13.2867 7.3394ZM13.9999 9.1892L13.874 9.5767C13.7736 9.88571 13.4857 10.0949 13.1607 10.0949H12.7533L13.0829 10.3344C13.3458 10.5254 13.4558 10.8639 13.3554 11.1729L13.2295 11.5604L13.5591 11.321C13.822 11.13 14.1779 11.13 14.4408 11.321L14.7704 11.5604L14.6445 11.1729C14.5441 10.8639 14.6541 10.5254 14.917 10.3344L15.2466 10.0949H14.8391C14.5142 10.0949 14.2263 9.88571 14.1259 9.5767L13.9999 9.1892Z" fill="#F7F9FD"/>
<path fill-rule="evenodd" clip-rule="evenodd" d="M13.9999 5.29166C11.1235 5.29166 8.79161 7.62351 8.79161 10.5C8.79161 13.3765 11.1235 15.7083 13.9999 15.7083C16.8764 15.7083 19.2083 13.3765 19.2083 10.5C19.2083 7.62351 16.8764 5.29166 13.9999 5.29166ZM7.54161 10.5C7.54161 6.93315 10.4331 4.04166 13.9999 4.04166C17.5668 4.04166 20.4583 6.93315 20.4583 10.5C20.4583 14.0668 17.5668 16.9583 13.9999 16.9583C10.4331 16.9583 7.54161 14.0668 7.54161 10.5Z" fill="#F7F9FD"/>
<path fill-rule="evenodd" clip-rule="evenodd" d="M12.5961 16.6251L13.0002 15.7763L14.0686 16.4125L13.6568 17.2773C13.6518 17.288 13.6464 17.2984 13.6408 17.3087L12.6167 19.1826L11.5571 21.1703C11.5554 21.1736 11.5535 21.1772 11.5514 21.181C11.5297 21.2219 11.4917 21.2936 11.4506 21.3526C11.4124 21.4073 11.2729 21.6023 11.0075 21.6358C10.9067 21.6485 10.8036 21.6361 10.7058 21.5997C10.4484 21.5038 10.3349 21.2785 10.3041 21.2156C10.2708 21.1477 10.2422 21.068 10.2258 21.0226C10.2243 21.0183 10.2228 21.0143 10.2215 21.0107L9.58546 19.2524L7.79114 19.6203C7.78732 19.6211 7.7832 19.622 7.77881 19.6229C7.73135 19.6327 7.65272 19.649 7.58178 19.6543C7.52303 19.6587 7.27453 19.6772 7.05677 19.4674C6.97614 19.3897 6.91252 19.2934 6.87095 19.1862C6.75869 18.8965 6.85775 18.6523 6.88119 18.5944C6.9095 18.5246 6.95016 18.4504 6.97464 18.4058C6.9769 18.4017 6.97903 18.3978 6.98099 18.3942L8.18261 16.1953L8.19052 16.1813L9.38679 14.1202L10.4072 14.8474L9.215 16.9015L8.54239 18.1323L9.69541 17.8959L9.69974 17.895C9.71801 17.8912 9.76667 17.881 9.81453 17.8766C9.87828 17.8707 9.99455 17.8682 10.128 17.9257C10.1886 17.9517 10.2459 17.9869 10.298 18.03C10.413 18.1251 10.4734 18.236 10.5031 18.2992C10.5254 18.3467 10.5438 18.398 10.5507 18.4173L10.5523 18.4219L10.9813 19.6075L11.5758 18.4922L12.5961 16.6251Z" fill="#F7F9FD"/>
<path fill-rule="evenodd" clip-rule="evenodd" d="M17.6252 15.7031L17.1807 14.9682L18.2991 14.4262L18.7536 15.1776C18.7603 15.1886 18.7666 15.1998 18.7725 15.2111L19.681 16.9431L20.6551 18.75C20.6567 18.7531 20.6586 18.7565 20.6605 18.7602C20.6815 18.7989 20.7194 18.8689 20.7454 18.9348C20.7707 18.9993 20.851 19.2153 20.74 19.4492C20.6972 19.5393 20.633 19.6182 20.5518 19.6803C20.3411 19.8416 20.0997 19.8233 20.0274 19.8166C19.9533 19.8098 19.8721 19.793 19.8272 19.7837C19.8229 19.7828 19.819 19.782 19.8154 19.7812L18.0076 19.411L17.2557 21.0373C17.2541 21.0406 17.2524 21.0443 17.2506 21.0482C17.2315 21.0898 17.1987 21.1612 17.1613 21.2206C17.1282 21.2731 16.9993 21.4746 16.7116 21.5303C16.6035 21.5513 16.4902 21.5485 16.3804 21.5224C16.088 21.4528 15.944 21.2448 15.9069 21.1905C15.8651 21.1293 15.8269 21.0562 15.8047 21.0136C15.8026 21.0096 15.8007 21.0058 15.7989 21.0024L14.7393 18.9825L13.4232 16.5733L14.5694 16.0796L15.8881 18.4935L16.4753 19.6127L16.9636 18.5566L16.9653 18.553C16.9724 18.5374 16.9919 18.4948 17.0153 18.4557C17.0466 18.4032 17.1084 18.3144 17.2224 18.2417C17.2747 18.2084 17.332 18.1819 17.3927 18.1632C17.5251 18.1222 17.6421 18.1287 17.7082 18.1362C17.7575 18.1418 17.8077 18.1523 17.8261 18.1561L17.8304 18.157L19.0586 18.4086L18.5298 17.4274L17.6252 15.7031Z" fill="#F7F9FD"/>
</svg>
