<svg width="16" height="16" viewBox="0 0 16 16" fill="none" xmlns="http://www.w3.org/2000/svg">
<path fill-rule="evenodd" clip-rule="evenodd" d="M9.06 2.50137C8.4559 1.85952 7.43583 1.85953 6.83174 2.50137L3.43583 6.10952C3.16872 6.39333 3.01999 6.76837 3.01999 7.15811V11.2326C3.01999 12.0405 3.64818 12.7092 4.45453 12.7596L7.94992 12.978L11.4442 12.7596C12.2509 12.7092 12.8792 12.04 12.8787 11.2317L12.8763 7.162C12.876 6.77258 12.7273 6.3979 12.4604 6.11432L9.06 2.50137ZM6.08898 1.80231C7.0958 0.732565 8.79593 0.732563 9.80275 1.80231L13.2032 5.41525C13.648 5.88789 13.8959 6.51235 13.8963 7.16139L13.8987 11.2311C13.8995 12.5782 12.8523 13.6936 11.5078 13.7776L7.94992 14L4.3909 13.7776C3.04698 13.6936 2 12.5791 2 11.2326V7.15811C2 6.50855 2.24789 5.88347 2.69308 5.41046L6.08898 1.80231Z" fill="#292D32"/>
<path fill-rule="evenodd" clip-rule="evenodd" d="M8.03906 8.36219C7.98449 8.32869 7.91572 8.32869 7.86115 8.36219L6.50117 9.19727C6.45081 9.22819 6.42012 9.28304 6.42012 9.34214V11.1091C6.42012 11.3907 6.19179 11.6191 5.91013 11.6191C5.62847 11.6191 5.40014 11.3907 5.40014 11.1091V9.34214C5.40014 8.92849 5.61495 8.54451 5.96745 8.32807L7.32743 7.49299C7.70941 7.25844 8.19079 7.25844 8.57278 7.49299L9.93276 8.32807C10.2853 8.54451 10.5001 8.92849 10.5001 9.34214V11.1091C10.5001 11.3907 10.2717 11.6191 9.99008 11.6191C9.70842 11.6191 9.48008 11.3907 9.48008 11.1091V9.34214C9.48008 9.28304 9.4494 9.22819 9.39904 9.19727L8.03906 8.36219Z" fill="#292D32"/>
</svg>
